<!DOCTYPE svg PUBLIC "-//W3C//DTD SVG 20010904//EN" "http://www.w3.org/TR/2001/REC-SVG-20010904/DTD/svg10.dtd">
<svg version="1.0" xmlns="http://www.w3.org/2000/svg" width="100px" height="100px" viewBox="0 0 1000 1000" preserveAspectRatio="xMidYMid meet">
<g id="layer101" fill="none" stroke="#ffffff" stroke-width="20">
 <path d="M637 832 l-147 -147 72 -72 c40 -39 78 -69 84 -67 6 3 19 -5 29 -16 22 -24 38 -25 55 -5 11 13 7 22 -24 54 -47 48 -30 69 18 22 36 -35 48 -38 66 -16 11 13 9 20 -14 44 -33 35 -17 55 18 22 27 -25 39 -26 56 -6 11 13 7 22 -24 54 -47 48 -30 69 18 22 36 -35 48 -38 66 -16 11 13 9 20 -14 44 -33 35 -17 55 18 22 28 -26 38 -26 61 -1 19 21 18 22 -75 115 -52 52 -99 95 -105 95 -6 0 -77 -66 -158 -148z"/>
 <path d="M43 944 c-3 -9 2 -51 11 -93 l18 -76 367 -367 366 -368 43 0 c54 0 77 12 98 52 33 64 31 66 -363 460 l-368 367 -65 16 c-36 9 -73 18 -83 21 -10 3 -20 -1 -24 -12z m101 -63 c3 -4 -3 -16 -13 -25 -17 -15 -19 -16 -25 -1 -3 9 -6 21 -6 26 0 11 37 12 44 0z m762 -733 c10 -32 -38 -73 -68 -57 -20 11 -19 12 13 45 39 40 45 41 55 12z"/>
 <path d="M157 352 c-81 -81 -147 -152 -147 -157 0 -13 172 -185 185 -185 6 0 24 13 40 30 l29 30 -28 29 c-36 38 -15 54 23 17 l28 -26 18 20 c18 20 18 21 -19 59 -51 52 -29 68 23 17 l37 -37 19 21 c18 20 18 21 -9 49 -36 38 -15 54 23 17 l28 -26 18 20 c18 20 18 21 -19 59 -51 52 -29 68 23 17 36 -35 38 -36 54 -18 16 17 11 23 -81 115 l-97 97 -148 -148z"/>
 </g>

</svg>