<!DOCTYPE svg PUBLIC "-//W3C//DTD SVG 20010904//EN" "http://www.w3.org/TR/2001/REC-SVG-20010904/DTD/svg10.dtd">
<svg version="1.0" xmlns="http://www.w3.org/2000/svg" width="100px" height="100px" viewBox="0 0 1000 1000" preserveAspectRatio="xMidYMid meet">
<g id="layer101" fill="none" stroke="#ffffff" stroke-width="20">
 <path d="M148 991 c-92 -30 -141 -93 -146 -190 -3 -55 1 -74 21 -111 31 -58 94 -98 168 -106 49 -6 59 -12 112 -63 48 -47 60 -54 75 -44 9 6 15 17 13 25 -15 51 -12 68 17 98 18 17 41 30 55 30 41 0 38 25 -9 71 -39 38 -44 48 -44 86 0 76 -46 155 -111 188 -34 18 -117 27 -151 16z m131 -181 c14 -42 13 -42 -20 -76 -33 -33 -35 -33 -74 -22 -46 14 -51 20 -60 66 -5 30 -2 39 25 67 31 32 33 32 73 20 37 -10 44 -17 56 -55z"/>
 <path d="M850 993 c-8 -3 -84 -73 -167 -156 -100 -99 -153 -159 -153 -173 0 -26 -40 -64 -67 -64 -43 0 -70 -64 -37 -91 13 -11 -4 -32 -137 -165 -138 -138 -155 -152 -180 -147 -30 6 -38 -3 -91 -104 l-23 -43 28 -27 27 -28 43 23 c101 53 110 61 104 91 -5 25 9 42 147 180 133 133 154 150 165 137 28 -34 91 -6 91 41 0 25 40 63 66 63 12 0 80 61 173 154 152 152 154 155 154 198 0 25 -7 55 -17 70 -24 37 -83 56 -126 41z m0 -151 c0 -14 -226 -233 -233 -225 -8 7 211 233 225 233 5 0 8 -3 8 -8z"/>
 <path d="M637 493 c-4 -3 -7 -17 -7 -30 0 -14 -13 -38 -30 -55 -30 -29 -47 -32 -98 -17 -8 2 -19 -4 -25 -13 -10 -14 -6 -23 21 -51 29 -30 32 -37 22 -61 -15 -40 -12 -112 5 -146 35 -67 139 -119 238 -120 86 0 88 15 12 90 -30 30 -55 59 -55 65 0 13 102 115 116 115 5 0 34 -25 64 -55 62 -63 85 -69 95 -25 16 74 -46 222 -114 267 -38 26 -112 31 -156 11 -22 -10 -28 -8 -48 10 -25 24 -30 26 -40 15z"/>
 </g>

</svg>