<!DOCTYPE svg PUBLIC "-//W3C//DTD SVG 20010904//EN" "http://www.w3.org/TR/2001/REC-SVG-20010904/DTD/svg10.dtd">
<svg version="1.0" xmlns="http://www.w3.org/2000/svg" width="100px" height="100px" viewBox="0 0 1000 1000" preserveAspectRatio="xMidYMid meet">
<g id="layer101" fill="none" stroke="#ffffff" stroke-width="30">
 <path d="M422 943 c-6 -10 -13 -41 -17 -69 -6 -45 -10 -51 -38 -62 -29 -11 -36 -9 -84 23 -29 19 -56 35 -61 35 -10 0 -102 -93 -102 -104 0 -5 16 -30 36 -57 33 -46 35 -51 23 -83 -11 -31 -17 -34 -61 -40 -79 -11 -78 -10 -78 -91 0 -82 -3 -78 82 -91 43 -6 48 -9 58 -40 11 -31 9 -38 -13 -67 -51 -67 -51 -72 -11 -117 59 -65 67 -67 125 -25 46 33 53 35 84 25 29 -10 34 -16 39 -58 13 -85 9 -82 91 -82 81 0 80 -1 91 80 6 45 9 50 40 60 32 11 38 9 83 -24 27 -20 53 -36 58 -36 10 0 103 92 103 103 0 4 -16 31 -35 60 -32 48 -34 55 -23 84 11 28 17 32 62 38 81 11 86 16 86 90 0 74 -6 80 -87 90 -45 7 -51 10 -62 40 -11 32 -10 37 24 83 19 27 35 54 35 59 0 11 -93 103 -104 103 -5 0 -30 -16 -57 -36 -46 -33 -51 -35 -83 -23 -31 11 -34 17 -41 62 -10 81 -16 87 -90 87 -51 0 -66 -4 -73 -17z m139 -336 c73 -49 87 -132 33 -196 -52 -62 -146 -63 -198 -1 -53 63 -39 150 33 197 43 29 89 29 132 0z"/>
 </g>

</svg>