<!DOCTYPE svg PUBLIC "-//W3C//DTD SVG 20010904//EN" "http://www.w3.org/TR/2001/REC-SVG-20010904/DTD/svg10.dtd">
<svg version="1.0" xmlns="http://www.w3.org/2000/svg" width="355px" height="25px" viewBox="0 0 3550 250" preserveAspectRatio="xMidYMid meet">
<g id="layer101" fill="#d9d9d9" stroke="none">
 <path d="M32 131 c-18 -65 -32 -121 -32 -125 0 -3 32 -6 70 -6 57 0 70 3 70 16 0 9 -9 18 -20 21 -11 3 -20 7 -20 10 0 15 24 100 31 107 4 5 47 -28 96 -73 84 -78 89 -81 135 -81 26 0 48 2 48 4 0 3 -61 59 -136 125 -122 108 -141 121 -174 121 l-37 0 -31 -119z"/>
 <path d="M563 238 c-46 -15 -86 -61 -86 -98 0 -74 91 -133 216 -139 210 -9 289 133 121 219 -39 20 -65 25 -134 27 -47 1 -99 -3 -117 -9z m168 -48 c48 -14 81 -50 77 -86 -4 -38 -62 -60 -131 -50 -97 15 -146 100 -74 131 38 17 79 18 128 5z"/>
 <path d="M1033 238 c2 -7 26 -64 52 -125 l48 -113 45 0 c31 0 43 4 39 13 -3 6 -21 49 -41 95 l-35 82 101 0 c99 0 100 0 94 23 -3 12 -6 25 -6 30 0 4 -68 7 -151 7 -117 0 -150 -3 -146 -12z"/>
 <path d="M1560 228 c-81 -42 -90 -102 -25 -164 44 -41 112 -64 193 -64 75 0 135 16 158 41 16 18 15 20 -15 32 -29 12 -37 12 -69 -5 -41 -20 -80 -23 -133 -8 -41 12 -89 54 -89 80 0 46 93 73 166 48 35 -13 45 -13 68 -1 14 7 26 17 26 22 0 18 -61 34 -145 38 -79 4 -95 2 -135 -19z"/>
 <path d="M1965 231 c11 -11 76 -67 145 -125 117 -100 128 -106 164 -104 l39 3 39 115 c21 63 38 118 38 122 0 4 -20 8 -44 8 -41 0 -45 -2 -51 -30 l-7 -30 -87 0 c-82 0 -89 2 -121 30 -28 24 -44 29 -85 30 -49 0 -49 0 -30 -19z m300 -113 c-13 -42 -24 -44 -57 -10 l-33 32 48 0 c45 0 48 -1 42 -22z"/>
 <path d="M2540 245 c0 -4 23 -60 51 -126 l51 -119 38 0 c34 0 42 6 100 75 35 41 65 75 67 75 2 0 19 -34 38 -75 l34 -75 61 0 c53 0 61 2 58 17 -2 9 -14 20 -28 23 -19 5 -33 25 -68 108 -44 100 -45 102 -78 102 -28 0 -41 -10 -98 -75 -36 -41 -69 -74 -73 -73 -5 1 -22 33 -38 72 -31 71 -31 71 -73 74 -23 2 -42 0 -42 -3z"/>
 <path d="M3214 239 c-39 -11 -81 -50 -90 -83 -13 -51 54 -123 135 -146 60 -16 171 -12 217 9 116 53 89 175 -48 216 -56 16 -164 19 -214 4z m167 -50 c73 -25 100 -77 58 -115 -28 -25 -130 -26 -176 -1 -113 60 -12 159 118 116z"/>
 </g>
<g id="layer102" fill="#d9d9d9" stroke="none">
 <path d="M56 224 c-4 -15 -5 -28 -3 -31 3 -2 7 8 11 22 5 21 12 25 40 25 26 0 47 -11 87 -46 l54 -46 -53 51 c-45 43 -59 51 -92 51 -32 0 -39 -4 -44 -26z"/>
 <path d="M703 243 c9 -2 25 -2 35 0 9 3 1 5 -18 5 -19 0 -27 -2 -17 -5z"/>
 <path d="M1030 243 c0 -5 68 -8 150 -8 83 0 150 3 150 8 0 4 -67 7 -150 7 -82 0 -150 -3 -150 -7z"/>
 <path d="M1613 243 c9 -2 25 -2 35 0 9 3 1 5 -18 5 -19 0 -27 -2 -17 -5z"/>
 <path d="M1965 231 c11 -11 76 -67 145 -125 117 -100 128 -106 164 -104 22 2 41 9 42 16 1 7 0 8 -3 2 -2 -5 -21 -10 -41 -10 -32 0 -54 14 -170 113 l-133 112 37 3 c25 2 43 -3 58 -16 11 -10 28 -23 36 -27 8 -4 -1 6 -20 23 -29 26 -44 31 -85 32 -49 0 -49 0 -30 -19z"/>
 <path d="M2300 242 c0 -4 16 -6 36 -4 24 3 39 0 45 -9 7 -11 9 -10 9 4 0 14 -9 17 -45 17 -25 0 -45 -4 -45 -8z"/>
 <path d="M2540 243 c0 -5 20 -8 44 -8 24 0 42 3 39 8 -2 4 -22 7 -44 7 -21 0 -39 -3 -39 -7z"/>
 <path d="M2764 173 c-38 -43 -72 -77 -77 -75 -5 1 -5 -3 -2 -9 8 -12 3 -17 89 83 48 56 63 67 94 71 l37 4 -37 1 c-34 2 -41 -4 -104 -75z"/>
 <path d="M1799 224 c33 -14 34 -15 15 -30 -18 -14 -18 -15 4 -4 12 6 22 14 22 19 0 9 -45 31 -63 31 -7 -1 3 -7 22 -16z"/>
 <path d="M3184 224 c-19 -15 -19 -15 1 -6 11 5 27 12 35 15 13 5 13 6 -1 6 -8 1 -24 -6 -35 -15z"/>
 <path d="M505 200 c-16 -16 -27 -31 -24 -33 2 -1 18 12 36 30 17 18 28 33 24 33 -4 0 -20 -13 -36 -30z"/>
 <path d="M1519 201 c-19 -20 -29 -39 -28 -58 1 -26 2 -26 9 7 5 19 21 45 37 57 15 13 24 23 20 23 -5 0 -22 -13 -38 -29z"/>
 <path d="M2901 225 c0 -5 6 -21 14 -35 8 -14 14 -20 14 -15 0 6 -6 21 -14 35 -8 14 -14 21 -14 15z"/>
 <path d="M3476 205 c23 -13 49 -39 57 -57 9 -18 17 -27 17 -20 0 31 -74 102 -106 102 -5 0 10 -11 32 -25z"/>
 <path d="M582 184 c-31 -22 -29 -64 6 -95 l27 -24 -22 26 c-34 38 -30 77 10 94 17 8 25 14 17 15 -9 0 -26 -7 -38 -16z"/>
 <path d="M866 180 c6 -8 16 -24 22 -35 6 -11 12 -15 12 -8 0 7 -10 22 -22 35 -13 13 -18 17 -12 8z"/>
 <path d="M1183 193 c32 -2 81 -2 110 0 29 2 3 3 -58 3 -60 0 -84 -1 -52 -3z"/>
 <path d="M3232 184 c-12 -8 -22 -20 -22 -26 0 -7 6 -4 13 5 6 9 23 21 37 26 14 5 18 10 10 10 -9 1 -26 -6 -38 -15z"/>
 <path d="M120 164 c0 -8 5 -12 10 -9 6 4 49 -30 97 -74 84 -78 89 -81 135 -81 26 0 48 2 48 4 0 2 -37 36 -82 76 l-83 72 75 -71 75 -71 -40 0 c-36 0 -48 8 -133 85 -51 47 -95 85 -97 85 -3 0 -5 -7 -5 -16z"/>
 <path d="M787 160 c12 -14 23 -36 26 -50 l4 -25 2 26 c1 16 -9 34 -26 50 l-28 24 22 -25z"/>
 <path d="M2779 85 c-56 -67 -67 -74 -103 -78 l-41 -4 41 -1 c40 -2 43 1 105 74 57 69 64 74 76 58 7 -10 13 -22 13 -28 0 -5 2 -7 5 -4 7 7 -16 58 -26 58 -4 0 -35 -34 -70 -75z"/>
 <path d="M2931 155 c0 -5 6 -21 14 -35 8 -14 14 -20 14 -15 0 6 -6 21 -14 35 -8 14 -14 21 -14 15z"/>
 <path d="M2161 143 c0 -5 21 -25 47 -47 l46 -38 12 33 c21 57 19 59 -46 59 -33 0 -60 -3 -59 -7z m104 -25 c-13 -42 -24 -44 -57 -10 l-33 32 48 0 c45 0 48 -1 42 -22z"/>
 <path d="M3460 115 c0 -10 -8 -27 -17 -37 -16 -18 -16 -18 0 -12 18 6 34 50 23 61 -3 4 -6 -2 -6 -12z"/>
 <path d="M480 113 c0 -7 10 -22 23 -35 12 -13 17 -17 11 -8 -6 8 -16 24 -22 35 -6 11 -12 15 -12 8z"/>
 <path d="M1586 107 c4 -10 16 -22 28 -29 18 -9 19 -8 6 3 -8 8 -20 21 -27 29 -11 13 -12 13 -7 -3z"/>
 <path d="M871 56 l-24 -31 28 27 c16 15 27 29 24 31 -2 3 -15 -10 -28 -27z"/>
 <path d="M2881 85 c0 -5 6 -21 14 -35 8 -14 14 -20 14 -15 0 6 -6 21 -14 35 -8 14 -14 21 -14 15z"/>
 <path d="M3155 71 c21 -24 85 -61 107 -61 7 0 -7 10 -32 21 -25 11 -56 30 -70 42 l-25 22 20 -24z"/>
 <path d="M1869 66 l24 -13 -24 -17 c-13 -9 -19 -16 -13 -16 6 0 19 9 28 19 17 19 17 20 -3 30 -11 6 -23 11 -28 11 -4 -1 3 -7 16 -14z"/>
 <path d="M3505 44 c-18 -16 -22 -22 -9 -15 18 9 53 42 43 41 -2 -1 -17 -12 -34 -26z"/>
 <path d="M126 26 c5 -13 -4 -16 -54 -16 -39 0 -62 4 -65 13 -3 7 -6 5 -6 -5 -1 -16 9 -18 69 -18 54 0 70 3 70 14 0 8 -4 18 -10 21 -6 3 -7 -1 -4 -9z"/>
 <path d="M1204 28 c4 -14 -3 -18 -37 -21 l-42 -4 48 -1 c49 -2 54 2 36 28 -9 13 -10 13 -5 -2z"/>
 <path d="M3027 25 c5 -15 -2 -16 -55 -13 -33 1 -58 0 -55 -4 2 -5 31 -8 64 -8 45 0 59 3 59 14 0 8 -4 18 -10 21 -6 4 -7 -1 -3 -10z"/>
 <path d="M643 3 c9 -2 25 -2 35 0 9 3 1 5 -18 5 -19 0 -27 -2 -17 -5z"/>
 <path d="M1663 3 c9 -2 25 -2 35 0 9 3 1 5 -18 5 -19 0 -27 -2 -17 -5z"/>
 <path d="M3293 3 c9 -2 25 -2 35 0 9 3 1 5 -18 5 -19 0 -27 -2 -17 -5z"/>
 </g>
<g id="layer103" fill="#d9d9d9" stroke="none">
 <path d="M60 242 c0 -4 18 -6 40 -4 22 2 40 6 40 8 0 2 -18 4 -40 4 -22 0 -40 -3 -40 -8z"/>
 <path d="M1030 243 c0 -5 68 -8 150 -8 83 0 150 3 150 8 0 4 -67 7 -150 7 -82 0 -150 -3 -150 -7z"/>
 <path d="M1970 225 c28 -30 41 -34 15 -5 -18 20 -17 20 21 20 22 0 46 -6 54 -12 12 -11 12 -10 1 5 -10 12 -28 17 -64 17 l-50 0 23 -25z"/>
 <path d="M2300 242 c0 -4 16 -6 36 -4 24 3 39 0 45 -9 7 -11 9 -10 9 4 0 14 -9 17 -45 17 -25 0 -45 -4 -45 -8z"/>
 <path d="M2540 243 c0 -5 20 -8 44 -8 24 0 42 3 39 8 -2 4 -22 7 -44 7 -21 0 -39 -3 -39 -7z"/>
 <path d="M2848 243 c12 -2 30 -2 40 0 9 3 -1 5 -23 4 -22 0 -30 -2 -17 -4z"/>
 <path d="M1183 193 c32 -2 81 -2 110 0 29 2 3 3 -58 3 -60 0 -84 -1 -52 -3z"/>
 <path d="M2170 142 c0 -5 10 -17 23 -28 l22 -19 -20 24 -20 23 52 -3 c28 -2 49 -1 46 4 -6 10 -103 9 -103 -1z"/>
 <path d="M215 90 c21 -22 41 -40 44 -40 3 0 -13 18 -34 40 -21 22 -41 40 -44 40 -3 0 13 -18 34 -40z"/>
 <path d="M3461 116 c0 -11 -9 -29 -18 -40 -17 -20 -16 -20 6 0 14 13 21 29 18 40 -4 18 -5 18 -6 0z"/>
 <path d="M330 77 c0 -2 15 -16 33 -33 l32 -29 -29 33 c-28 30 -36 37 -36 29z"/>
 <path d="M2730 26 c-6 -8 -30 -17 -53 -19 l-42 -4 41 -1 c30 -2 46 3 59 18 10 11 16 20 13 20 -3 0 -11 -7 -18 -14z"/>
 <path d="M0 18 c0 -16 9 -18 73 -16 l72 2 -65 3 c-35 2 -68 9 -72 16 -5 8 -8 6 -8 -5z"/>
 <path d="M3030 19 c0 -7 -21 -10 -59 -7 -33 1 -57 0 -54 -4 2 -5 31 -8 64 -8 46 0 59 3 59 15 0 8 -2 15 -5 15 -3 0 -5 -5 -5 -11z"/>
 <path d="M309 7 c5 -5 30 -7 57 -5 l49 3 -57 5 c-31 3 -53 1 -49 -3z"/>
 <path d="M1170 10 l-45 -7 48 -1 c26 -1 47 3 47 8 0 6 -1 9 -2 8 -2 0 -23 -4 -48 -8z"/>
 <path d="M2227 8 c2 -5 22 -8 43 -8 21 0 41 3 43 7 3 5 -17 8 -43 8 -26 0 -46 -3 -43 -7z"/>
 </g>

</svg>